<svg xmlns="http://www.w3.org/2000/svg" data-name="Layer 1" viewBox="0 0 95 118.75" x="0px" y="0px"><defs><style>.cls-1{fill-rule:evenodd;}</style></defs><title>a</title><path class="cls-1" d="M44.022,62.393a4.864,4.864,0,1,1,4.864-4.864,4.868,4.868,0,0,1-4.864,4.864Zm0-11.837a6.973,6.973,0,1,0,6.972,6.973,6.982,6.982,0,0,0-6.972-6.973Zm27.1-9.671a1.077,1.077,0,1,1,1.077,1.077,1.078,1.078,0,0,1-1.077-1.077Zm0,16.644a1.077,1.077,0,1,1,1.077,1.079,1.078,1.078,0,0,1-1.077-1.079ZM70.3,63.681A17.546,17.546,0,0,0,80.483,31.837a1.055,1.055,0,0,1-.129-1.6A10.271,10.271,0,0,0,66.506,15.09a1.058,1.058,0,0,1-1.595-.29A19.99,19.99,0,0,0,27.5,24.612V27.5a1.056,1.056,0,0,1-1.055,1.055H24.7A17.555,17.555,0,0,0,17.79,62.253l1.263-1.782a1.178,1.178,0,0,1,.121-.142c1.33-1.306.672-4.152-.112-6.31a1.6,1.6,0,0,1-.09-.741A23.765,23.765,0,0,1,30.88,35.3,25.657,25.657,0,0,1,66.735,46.427h.76l2.122-3.675a3.149,3.149,0,0,1-.611-1.867,3.188,3.188,0,1,1,3.188,3.187,3.121,3.121,0,0,1-.837-.116l-2.34,4.053a1.054,1.054,0,0,1-.914.527h-.469a25.95,25.95,0,0,1,1.6,7.818,3.189,3.189,0,1,1,.006,2.364,25.393,25.393,0,0,1-.719,4.963Zm-13.187,2.84a1.643,1.643,0,0,0-.139-1.547l-1.389-2.1c.142-.311.274-.626.392-.948l2.468-.5a1.626,1.626,0,0,0,1.311-1.607V58.583h7.35a23.421,23.421,0,0,1-1.745,7.938Zm-3.621-2.988a1.054,1.054,0,0,1-.055-1.073,10.712,10.712,0,0,0,.731-1.762,1.056,1.056,0,0,1,.8-.719l2.683-.547V55.625l-2.683-.547a1.052,1.052,0,0,1-.8-.718,10.605,10.605,0,0,0-.731-1.762,1.054,1.054,0,0,1,.055-1.073L55,49.24l-2.693-2.692-2.285,1.511a1.054,1.054,0,0,1-1.072.055,10.566,10.566,0,0,0-1.761-.731,1.048,1.048,0,0,1-.719-.8L45.924,43.9H42.118l-.547,2.684a1.058,1.058,0,0,1-.719.8,10.586,10.586,0,0,0-1.763.731,1.055,1.055,0,0,1-1.072-.055l-2.286-1.511L33.04,49.24l1.512,2.285a1.058,1.058,0,0,1,.054,1.073,10.591,10.591,0,0,0-.731,1.762,1.053,1.053,0,0,1-.8.718l-2.684.547v3.807l2.684.547a1.058,1.058,0,0,1,.8.719,10.605,10.605,0,0,0,.731,1.762,1.059,1.059,0,0,1-.054,1.073L33.04,65.819l2.691,2.691L38.017,67a1.061,1.061,0,0,1,1.072-.055,10.419,10.419,0,0,0,1.763.731,1.063,1.063,0,0,1,.719.8l.547,2.685h3.806l.548-2.685a1.053,1.053,0,0,1,.719-.8,10.413,10.413,0,0,0,1.761-.731A1.061,1.061,0,0,1,50.024,67l2.285,1.512L55,65.819l-1.511-2.286Zm4.953-9.9-2.468-.5c-.118-.321-.25-.637-.392-.948l1.389-2.1a1.618,1.618,0,0,0,.142-1.548H65.34A23.862,23.862,0,0,1,67.1,56.474H59.755V55.242a1.624,1.624,0,0,0-1.311-1.607Zm5.922,15,0,0h-9.2l-1.642,1.642a1.643,1.643,0,0,1-2.063.209l-2.1-1.39c-.31.144-.628.276-.948.393l-.5,2.466a1.644,1.644,0,0,1-1.606,1.314H41.732a1.645,1.645,0,0,1-1.606-1.314l-.5-2.466c-.321-.117-.638-.249-.949-.393l-2.1,1.39a1.648,1.648,0,0,1-2.064-.209l-3.235-3.235a1.646,1.646,0,0,1-.207-2.065l1.389-2.1c-.144-.311-.275-.626-.394-.948l-2.467-.5a1.626,1.626,0,0,1-1.313-1.607V55.242A1.625,1.625,0,0,1,29.6,53.635l2.467-.5q.178-.481.394-.947l-1.389-2.1a1.624,1.624,0,0,1,.207-2.064l3.235-3.235a1.645,1.645,0,0,1,2.064-.208l2.1,1.389q.466-.216.949-.392l.5-2.468a1.642,1.642,0,0,1,1.6-1.312h4.577a1.645,1.645,0,0,1,1.606,1.313l.5,2.466c.32.118.638.249.948.393l2.1-1.389a1.642,1.642,0,0,1,2.063.208l1.642,1.642h9.17a23.294,23.294,0,0,0-4.327-5.765,23.626,23.626,0,0,0-28.088-3.528l-.007,0A21.641,21.641,0,0,0,21.081,53.4c1.41,3.928,1.293,6.665-.358,8.36l-4.982,7.021L19.8,69.8a1.057,1.057,0,0,1,.8,1.095l-.249,3.7,1.258.826a1.639,1.639,0,0,1,.415,2.348l-.592.791.937.612a1.614,1.614,0,0,1,.74,1.345l.054,3.616a.226.226,0,0,0,.226.222h5.942A2.323,2.323,0,0,1,31.5,85.823a41.526,41.526,0,0,1,1.511,4.568h25.11c-.709-1.714-1.413-3.681-2.1-5.868a3.853,3.853,0,0,1,.449-3.329c.875-1.361,1.792-2.672,2.68-3.941a50.276,50.276,0,0,0,5.18-8.543.653.653,0,0,1,.037-.075Zm8.905,5.538A1.077,1.077,0,1,1,72.194,73.1a1.08,1.08,0,0,1,1.077,1.078Zm9.38-43.335a12.38,12.38,0,0,0-16.523-18.1,22.1,22.1,0,0,0-40.74,11.877v1.837H24.7a19.662,19.662,0,0,0-8.156,37.557l-2.923,4.12a1.638,1.638,0,0,0,.935,2.535l3.878.972-.21,3.1a1.62,1.62,0,0,0,.737,1.478l1.069.7-.591.791a1.638,1.638,0,0,0,.415,2.349L21,80.8l.051,3.368a2.343,2.343,0,0,0,2.335,2.3h5.942a.208.208,0,0,1,.21.141,40.869,40.869,0,0,1,1.633,5.1A1.055,1.055,0,0,0,32.2,92.5H59.724a1.053,1.053,0,0,0,.96-1.492,62.248,62.248,0,0,1-2.651-7.116,1.762,1.762,0,0,1,.209-1.558c.854-1.325,1.76-2.62,2.637-3.872a52,52,0,0,0,5.366-8.868c.171-.32.333-.639.487-.963H67.5l2.122,3.675a3.152,3.152,0,0,0-.611,1.867,3.188,3.188,0,1,0,3.188-3.187,3.121,3.121,0,0,0-.837.116l-2.34-4.053a1.053,1.053,0,0,0-.914-.528h-.467c.091-.242.179-.487.264-.73h2.4A19.653,19.653,0,0,0,82.651,30.838Z"/><text x="0" y="110" fill="#000000" font-size="5px" font-weight="bold" font-family="'Helvetica Neue', Helvetica, Arial-Unicode, Arial, Sans-serif">Created by iconpro86</text><text x="0" y="115" fill="#000000" font-size="5px" font-weight="bold" font-family="'Helvetica Neue', Helvetica, Arial-Unicode, Arial, Sans-serif">from the Noun Project</text></svg>