<svg xmlns="http://www.w3.org/2000/svg" viewBox="0 0 64 80" x="0px" y="0px"><g data-name="Computer Vision"><path d="M53,11H52V9a5,5,0,0,0-5-5H17a5,5,0,0,0-5,5v2H11a7,7,0,0,0-7,7V44a7,7,0,0,0,7,7H53a7,7,0,0,0,7-7V18A7,7,0,0,0,53,11ZM32,10c7.6,0,14,7.3,14,10S39.6,30,32,30,18,22.7,18,20,24.4,10,32,10ZM58,42H6V18a5,5,0,0,1,5-5h1V31a5,5,0,0,0,5,5H47a5,5,0,0,0,5-5V13h1a5,5,0,0,1,5,5Z"/><path d="M39.8,53H24.2L22,57a1.8,1.8,0,0,0,0,2,1.9,1.9,0,0,0,1.7,1H40.3A1.9,1.9,0,0,0,42,59a1.8,1.8,0,0,0,0-2Z"/><path d="M32,25a5,5,0,0,0,5-5,6.8,6.8,0,0,0-.2-1.4,2,2,0,0,1-1.3.4A2.5,2.5,0,0,1,33,16.5a2,2,0,0,1,.4-1.3L32,15a5,5,0,0,0,0,10Z"/></g><text x="0" y="79" fill="#000000" font-size="5px" font-weight="bold" font-family="'Helvetica Neue', Helvetica, Arial-Unicode, Arial, Sans-serif">Created by eka ysdsgn</text><text x="0" y="84" fill="#000000" font-size="5px" font-weight="bold" font-family="'Helvetica Neue', Helvetica, Arial-Unicode, Arial, Sans-serif">from the Noun Project</text></svg>