<svg xmlns="http://www.w3.org/2000/svg" xmlns:xlink="http://www.w3.org/1999/xlink" version="1.1" x="0px" y="0px" viewBox="0 0 124 155" style="enable-background:new 0 0 124 124;" xml:space="preserve"><path d="M106.071,69.669c1.24,0.671,2.661,1.053,4.169,1.053c4.83,0,8.76-3.913,8.76-8.722c0-4.809-3.93-8.722-8.76-8.722  c-1.508,0-2.929,0.382-4.169,1.053L89.687,36.236l13.286-4.891c1.575,2.326,4.245,3.858,7.268,3.858c4.83,0,8.76-3.913,8.76-8.722  c0-4.809-3.93-8.722-8.76-8.722c-3.023,0-5.693,1.533-7.268,3.858L70.696,9.735c0.039-0.333,0.064-0.67,0.064-1.013  C70.76,3.913,66.83,0,62,0c-4.83,0-8.76,3.913-8.76,8.722c0,0.143,0.015,0.283,0.022,0.425L21.324,22.102  c-1.52-2.593-4.337-4.343-7.564-4.343c-4.83,0-8.76,3.913-8.76,8.722c0,4.809,3.93,8.722,8.76,8.722  c3.022,0,5.692-1.532,7.267-3.857l13.11,5.084L17.929,54.331c-1.24-0.671-2.661-1.053-4.169-1.053C8.93,53.278,5,57.191,5,62  c0,4.809,3.93,8.722,8.76,8.722c1.508,0,2.928-0.382,4.169-1.053l16.384,18.095l-13.285,4.891c-1.575-2.325-4.245-3.858-7.268-3.858  C8.93,88.797,5,92.71,5,97.519c0,4.809,3.93,8.722,8.76,8.722c3.023,0,5.693-1.533,7.268-3.858l32.277,11.882  c-0.039,0.333-0.064,0.67-0.064,1.013c0,4.809,3.93,8.722,8.76,8.722c4.83,0,8.76-3.913,8.76-8.722c0-0.343-0.025-0.68-0.064-1.013  l32.277-11.882c1.575,2.326,4.245,3.858,7.268,3.858c4.83,0,8.76-3.913,8.76-8.722c0-4.809-3.93-8.722-8.76-8.722  c-3.238,0-6.065,1.763-7.581,4.372l-13.223-5.128L106.071,69.669z M70.695,80.774c0.079-0.677,0.079-1.351,0-2.028l32.277-11.882  c0.013,0.019,0.027,0.036,0.039,0.054L85.328,86.449L70.695,80.774z M54.732,74.896L22.456,63.013c0.079-0.676,0.079-1.35,0-2.026  l32.277-11.883c1.205,1.779,3.053,3.084,5.206,3.604v18.583C57.785,71.812,55.937,73.117,54.732,74.896z M64.061,52.708  c2.354-0.569,4.337-2.082,5.52-4.118l31.963,12.395c-0.079,0.677-0.079,1.351,0,2.028L69.268,74.896  c-1.205-1.778-3.053-3.084-5.206-3.604V52.708z M103.012,57.082c-0.012,0.018-0.026,0.035-0.039,0.053l-32.233-12.5  c0.021-0.474,0.011-0.936-0.044-1.408l14.828-5.459L103.012,57.082z M69.268,13.585l32.277,11.883c-0.079,0.676-0.079,1.35,0,2.027  L69.268,39.377c-1.205-1.779-3.053-3.084-5.207-3.605V17.19C66.215,16.67,68.063,15.364,69.268,13.585z M22.498,26.056  l31.938-12.955c1.185,2.021,3.159,3.523,5.503,4.089v18.583c-2.355,0.569-4.337,2.082-5.52,4.118L22.456,27.496  C22.512,27.013,22.522,26.54,22.498,26.056z M53.26,43.846c-0.022,0.474-0.011,0.936,0.044,1.408L21.028,57.136  c-0.013-0.019-0.027-0.036-0.04-0.055l17.257-19.059L53.26,43.846z M20.988,66.918c0.013-0.018,0.027-0.036,0.039-0.054  l32.277,11.882c-0.079,0.676-0.079,1.35,0,2.026l-14.829,5.459L20.988,66.918z M54.732,110.414L22.456,98.532  c0.079-0.676,0.079-1.35,0-2.027l32.277-11.882c1.205,1.779,3.053,3.084,5.207,3.604v18.583  C57.785,107.33,55.937,108.636,54.732,110.414z M101.544,98.532l-32.277,11.882c-1.205-1.779-3.053-3.084-5.206-3.604V88.227  c2.153-0.52,4.001-1.825,5.206-3.603l32.233,12.5C101.479,97.598,101.489,98.06,101.544,98.532z"/><text x="0" y="139" fill="#000000" font-size="5px" font-weight="bold" font-family="'Helvetica Neue', Helvetica, Arial-Unicode, Arial, Sans-serif">Created by SBTS</text><text x="0" y="144" fill="#000000" font-size="5px" font-weight="bold" font-family="'Helvetica Neue', Helvetica, Arial-Unicode, Arial, Sans-serif">from the Noun Project</text></svg>