<svg xmlns="http://www.w3.org/2000/svg" xmlns:xlink="http://www.w3.org/1999/xlink" xmlns:serif="http://www.serif.com/" viewBox="0 0 96 120" version="1.1" xml:space="preserve" style="" x="0px" y="0px" fill-rule="evenodd" clip-rule="evenodd" stroke-linejoin="round" stroke-miterlimit="2"><path d="M7.046,76.816L5.554,76.816C4.134,76.816 2.982,75.663 2.982,74.243L2.982,65.392C2.982,63.973 4.134,62.82 5.554,62.82L7.046,62.82L7.046,58.319C7.046,55.148 9.633,52.561 12.804,52.561L20.236,52.561L18.256,49.13C18.005,49.175 17.746,49.199 17.482,49.199C15.086,49.199 13.141,47.254 13.141,44.858C13.141,42.463 15.086,40.517 17.482,40.517C19.878,40.517 21.823,42.463 21.823,44.858C21.823,45.927 21.436,46.906 20.794,47.663L23.622,52.561L33.404,52.561L36.232,47.663C35.591,46.906 35.204,45.927 35.204,44.858C35.204,42.463 37.149,40.517 39.544,40.517C41.94,40.517 43.885,42.463 43.885,44.858C43.885,47.254 41.94,49.199 39.544,49.199C39.28,49.199 39.022,49.175 38.771,49.13L36.79,52.561L44.222,52.561C47.393,52.561 49.98,55.148 49.98,58.319L49.98,62.82L51.472,62.82C52.884,62.82 54.032,63.96 54.045,65.369L59.402,56.091L51.877,56.091C51.068,56.091 50.411,55.434 50.411,54.625C50.411,53.816 51.068,53.159 51.877,53.159L89.918,53.159C90.481,53.159 90.938,52.702 90.938,52.139L90.938,7.396C90.938,6.833 90.481,6.376 89.918,6.376L33.885,6.376C33.322,6.376 32.865,6.833 32.865,7.396L32.865,49.864C32.865,50.673 32.208,51.33 31.399,51.33C30.59,51.33 29.933,50.673 29.933,49.864L29.933,7.396C29.933,5.215 31.704,3.444 33.885,3.444L89.918,3.444C92.099,3.444 93.87,5.215 93.87,7.396L93.87,52.139C93.87,54.32 92.099,56.091 89.918,56.091L64.401,56.091L76.109,76.37C76.514,77.071 76.273,77.968 75.573,78.372C74.872,78.777 73.975,78.537 73.57,77.836L63.367,60.164L63.367,77.103C63.367,77.912 62.71,78.569 61.901,78.569C61.092,78.569 60.435,77.912 60.435,77.103L60.435,60.164L54.045,71.233L54.045,74.243C54.045,75.407 53.27,76.391 52.209,76.708L52.209,89.6C52.209,90.41 51.553,91.066 50.743,91.066L35.715,91.066C35.156,92.303 33.911,93.164 32.466,93.164L28.667,93.164C26.7,93.164 25.103,91.567 25.103,89.6C25.103,87.633 26.7,86.036 28.667,86.036L32.466,86.036C33.911,86.036 35.156,86.898 35.715,88.134L49.277,88.134L49.277,82.572C48.298,84.358 46.398,85.572 44.222,85.572L12.804,85.572C9.633,85.572 7.046,82.992 7.046,79.82L7.046,76.816ZM7.046,65.752L5.913,65.752L5.913,73.884L7.046,73.884L7.046,65.752ZM49.98,65.752L49.98,73.884L51.113,73.884L51.113,65.752L49.98,65.752ZM39.544,43.449C38.767,43.449 38.135,44.081 38.135,44.858C38.135,45.636 38.767,46.267 39.544,46.267C40.322,46.267 40.953,45.636 40.953,44.858C40.953,44.081 40.322,43.449 39.544,43.449ZM47.048,79.82L47.048,58.319C47.048,56.763 45.778,55.493 44.222,55.493L12.804,55.493C11.248,55.493 9.978,56.763 9.978,58.319L9.978,79.82C9.978,81.376 11.249,82.64 12.804,82.64L44.222,82.64C45.778,82.64 47.048,81.376 47.048,79.82ZM21.698,59.528C24.213,59.528 26.255,61.57 26.255,64.084C26.255,66.599 24.213,68.641 21.698,68.641C19.184,68.641 17.142,66.599 17.142,64.084C17.142,61.57 19.184,59.528 21.698,59.528ZM21.698,62.46C20.802,62.46 20.074,63.188 20.074,64.084C20.074,64.981 20.802,65.709 21.698,65.709C22.595,65.709 23.323,64.981 23.323,64.084C23.323,63.188 22.595,62.46 21.698,62.46ZM36.029,72.742C35.862,76.919 32.427,80.218 28.248,80.218C24.068,80.218 20.634,76.919 20.467,72.742C20.451,72.344 20.598,71.956 20.874,71.668C21.151,71.381 21.532,71.218 21.931,71.218L34.564,71.218C34.963,71.218 35.345,71.381 35.621,71.668C35.898,71.956 36.045,72.344 36.029,72.742ZM32.79,74.15C32.79,74.15 23.705,74.15 23.705,74.15C24.401,75.989 26.178,77.286 28.248,77.286C30.318,77.286 32.094,75.989 32.79,74.15ZM36.072,59.528C38.586,59.528 40.628,61.57 40.628,64.084C40.628,66.599 38.586,68.641 36.072,68.641C33.557,68.641 31.515,66.599 31.515,64.084C31.515,61.57 33.557,59.528 36.072,59.528ZM36.072,62.46C35.175,62.46 34.447,63.188 34.447,64.084C34.447,64.981 35.175,65.709 36.072,65.709C36.968,65.709 37.696,64.981 37.696,64.084C37.696,63.188 36.968,62.46 36.072,62.46ZM17.482,43.449C16.704,43.449 16.073,44.081 16.073,44.858C16.073,45.636 16.704,46.267 17.482,46.267C18.26,46.267 18.891,45.636 18.891,44.858C18.891,44.081 18.26,43.449 17.482,43.449ZM33.098,89.6C33.098,89.252 32.815,88.968 32.466,88.968L28.667,88.968C28.318,88.968 28.035,89.252 28.035,89.6C28.035,89.949 28.318,90.232 28.667,90.232L32.466,90.232C32.815,90.232 33.098,89.949 33.098,89.6ZM38.415,16.178C37.605,16.178 36.949,15.521 36.949,14.712C36.949,13.903 37.605,13.246 38.415,13.246L85.388,13.246C86.197,13.246 86.854,13.903 86.854,14.712C86.854,15.521 86.197,16.178 85.388,16.178L38.415,16.178ZM38.415,23.705C37.605,23.705 36.949,23.049 36.949,22.239C36.949,21.43 37.605,20.774 38.415,20.774L85.388,20.774C86.197,20.774 86.854,21.43 86.854,22.239C86.854,23.049 86.197,23.705 85.388,23.705L38.415,23.705ZM38.415,31.233C37.605,31.233 36.949,30.576 36.949,29.767C36.949,28.958 37.605,28.301 38.415,28.301L85.388,28.301C86.197,28.301 86.854,28.958 86.854,29.767C86.854,30.576 86.197,31.233 85.388,31.233L38.415,31.233ZM38.415,38.761C37.605,38.761 36.949,38.104 36.949,37.295C36.949,36.486 37.605,35.829 38.415,35.829L85.388,35.829C86.197,35.829 86.854,36.486 86.854,37.295C86.854,38.104 86.197,38.761 85.388,38.761L38.415,38.761ZM46.375,46.289C45.566,46.289 44.909,45.632 44.909,44.823C44.909,44.014 45.566,43.357 46.375,43.357L85.388,43.357C86.197,43.357 86.854,44.014 86.854,44.823C86.854,45.632 86.197,46.289 85.388,46.289L46.375,46.289Z"/><text x="0" y="111" fill="#000000" font-size="5px" font-weight="bold" font-family="'Helvetica Neue', Helvetica, Arial-Unicode, Arial, Sans-serif">Created by Eko Purnomo</text><text x="0" y="116" fill="#000000" font-size="5px" font-weight="bold" font-family="'Helvetica Neue', Helvetica, Arial-Unicode, Arial, Sans-serif">from the Noun Project</text></svg>