<svg xmlns="http://www.w3.org/2000/svg" xmlns:xlink="http://www.w3.org/1999/xlink" version="1.1" x="0px" y="0px" viewBox="0 0 100 125" style="enable-background:new 0 0 100 100;" xml:space="preserve"><path d="M98.98,49.43c0-10.3-8.15-18.74-18.35-19.2c-1.1-2.23-3.39-3.71-5.93-3.71H63.29v-4.58c0-1.14-0.92-2.06-2.06-2.06h-6.46  c-1.14,0-2.06,0.93-2.06,2.06v4.58h-6.26v-9.07c0-1.14-0.93-2.06-2.06-2.06h-6.45c-1.14,0-2.06,0.93-2.06,2.06v9.07h-6.26v-1.16  c0-1.14-0.93-2.06-2.06-2.06h-6.45c-1.14,0-2.06,0.93-2.06,2.06v1.16H7.62c-3.64,0-6.6,2.96-6.6,6.6v48.54c0,3.64,2.96,6.6,6.6,6.6  h24.8l-2.77,7.75h-5.39c-0.85,0-1.55,0.69-1.55,1.55c0,0.85,0.69,1.55,1.55,1.55h6.47c0,0,0.01,0,0.01,0c0,0,0,0,0.01,0h20.83  c0,0,0,0,0.01,0c0,0,0.01,0,0.01,0h6.47c0.85,0,1.55-0.69,1.55-1.55c0-0.85-0.69-1.55-1.55-1.55h-5.39l-2.77-7.75h24.8  c0.18,0,0.36-0.01,0.54-0.02l0,6.72c0.01,2.49,2.03,4.51,4.52,4.51c2.49,0,4.52-2.03,4.52-4.52v-19.6c0-1.74-1.29-3.18-2.97-3.42  v-3.37C91.19,67.79,98.98,59.51,98.98,49.43z M95.89,49.43c0,8.89-7.23,16.12-16.13,16.12c-8.89,0-16.12-7.23-16.12-16.12  c0-8.89,7.23-16.12,16.12-16.12C88.65,33.31,95.89,40.54,95.89,49.43z M74.7,29.62c0.83,0,1.61,0.3,2.22,0.8  c-5.78,0.86-10.73,4.3-13.63,9.11v-9.91H74.7z M55.81,22.98h4.39v27.46h-4.39V22.98z M38.97,18.49h4.39v31.95h-4.39V18.49z   M22.13,26.4h4.39v24.05h-4.39V26.4z M7.62,29.62h11.41v21.85c0,1.14,0.93,2.06,2.06,2.06h6.45c1.14,0,2.06-0.93,2.06-2.06V29.62  h6.26v21.85c0,1.14,0.93,2.06,2.06,2.06h6.45c1.14,0,2.06-0.93,2.06-2.06V29.62h6.26v21.85c0,1.14,0.93,2.06,2.06,2.06h6.21  c1.78,8.14,8.73,14.37,17.23,15.05v3.37c-0.44,0.06-0.86,0.21-1.23,0.42H4.11V33.13C4.11,31.2,5.69,29.62,7.62,29.62z M49.39,96.02  H32.94l2.77-7.75h10.9L49.39,96.02z M74.7,85.18H7.62c-1.94,0-3.51-1.57-3.51-3.51v-6.2h71.14l0,9.67  C75.07,85.16,74.89,85.18,74.7,85.18z M81.18,94.96c0,0.78-0.64,1.42-1.42,1.42c-0.78,0-1.42-0.64-1.42-1.42l0.01-19.6  c0-0.1,0.04-0.19,0.1-0.25c0,0,0.01-0.01,0.01-0.01c0.06-0.06,0.15-0.1,0.24-0.1h2.13c0.19,0,0.36,0.16,0.36,0.36V94.96z   M24.32,18.91c2.89,0,5.24-2.35,5.24-5.25c0-0.24-0.02-0.49-0.05-0.72l7.78-3.65c0.96,1.05,2.34,1.72,3.88,1.72  c1.87,0,3.51-0.98,4.44-2.46l7.17,1.91c0.11,2.79,2.41,5.04,5.24,5.04c2.89,0,5.25-2.35,5.25-5.24c0-2.89-2.35-5.25-5.25-5.25  c-1.87,0-3.51,0.98-4.44,2.46L46.4,5.56c-0.11-2.8-2.42-5.04-5.24-5.04c-2.89,0-5.25,2.35-5.25,5.25c0,0.25,0.02,0.49,0.05,0.73  l-7.77,3.65c-0.96-1.05-2.34-1.72-3.88-1.72c-2.89,0-5.25,2.35-5.25,5.24C19.08,16.56,21.43,18.91,24.32,18.91z M58,8.11  c1.19,0,2.15,0.96,2.15,2.15c0,1.18-0.96,2.14-2.15,2.14c-1.18,0-2.14-0.96-2.14-2.14C55.86,9.07,56.82,8.11,58,8.11z M41.16,3.61  c1.19,0,2.15,0.96,2.15,2.15s-0.96,2.15-2.15,2.15s-2.15-0.96-2.15-2.15S39.98,3.61,41.16,3.61z M24.32,11.52  c1.18,0,2.14,0.96,2.14,2.14c0,1.19-0.96,2.15-2.14,2.15c-1.19,0-2.15-0.96-2.15-2.15C22.17,12.48,23.14,11.52,24.32,11.52z"/><text x="0" y="115" fill="#000000" font-size="5px" font-weight="bold" font-family="'Helvetica Neue', Helvetica, Arial-Unicode, Arial, Sans-serif">Created by nangicon</text><text x="0" y="120" fill="#000000" font-size="5px" font-weight="bold" font-family="'Helvetica Neue', Helvetica, Arial-Unicode, Arial, Sans-serif">from the Noun Project</text></svg>