<svg xmlns="http://www.w3.org/2000/svg" xmlns:xlink="http://www.w3.org/1999/xlink" version="1.1" x="0px" y="0px" viewBox="0 0 100 125" enable-background="new 0 0 100 100" xml:space="preserve"><path d="M59.592,42.87c0-1.358-1.104-2.462-2.462-2.462h-1.011v-5.033h-2v5.033H51v-5.033h-2v5.033h-3.119v-5.033h-2v5.033H42.87  c-1.358,0-2.462,1.104-2.462,2.462v1.011h-5.033v2h5.033V49h-5.033v2h5.033v3.119h-5.033v2h5.033v1.011  c0,1.357,1.104,2.462,2.462,2.462h1.011v5.033h2v-5.033H49v5.033h2v-5.033h3.119v5.033h2v-5.033h1.011  c1.357,0,2.462-1.104,2.462-2.462v-1.011h5.033v-2h-5.033V51h5.033v-2h-5.033v-3.119h5.033v-2h-5.033V42.87z M57.592,57.13  c0,0.255-0.207,0.462-0.462,0.462H42.87c-0.255,0-0.462-0.207-0.462-0.462V42.87c0-0.255,0.208-0.462,0.462-0.462h14.26  c0.255,0,0.462,0.208,0.462,0.462V57.13z"/><path d="M97.125,50c0-5.662-4.151-10.854-11.026-14.884c2.128-8.009,1.18-14.483-2.776-18.438  c-2.573-2.574-6.176-3.878-10.706-3.878c-2.422,0-5.023,0.392-7.732,1.102C60.854,7.026,55.661,2.875,50,2.875  c-5.662,0-10.854,4.151-14.884,11.026c-2.709-0.71-5.311-1.102-7.732-1.102c-4.531,0-8.133,1.305-10.706,3.878  c-3.956,3.955-4.904,10.429-2.776,18.438C7.026,39.146,2.875,44.338,2.875,50c0,5.681,4.18,10.887,11.096,14.924  c-2.037,7.744-1.31,14.382,2.707,18.398c2.573,2.574,6.176,3.879,10.707,3.879c2.422,0,5.023-0.392,7.732-1.102  C39.147,92.975,44.338,97.125,50,97.125c5.661,0,10.853-4.15,14.884-11.025c2.708,0.71,5.31,1.102,7.731,1.102  c4.531,0,8.134-1.305,10.707-3.879c3.955-3.955,4.904-10.43,2.776-18.438C92.975,60.853,97.125,55.661,97.125,50z M72.616,14.799  c3.98,0,7.107,1.107,9.292,3.292c3.354,3.354,4.16,8.97,2.382,16.027c-3.847-2.01-8.409-3.684-13.49-4.919  c-1.234-5.077-2.906-9.635-4.914-13.48C68.259,15.124,70.522,14.799,72.616,14.799z M71.188,50c0,2.946-0.138,5.825-0.392,8.615  c-1.806,2.168-3.746,4.299-5.814,6.367c-2.072,2.072-4.218,4.009-6.399,5.816c-2.78,0.252-5.647,0.389-8.582,0.389  c-2.935,0-5.802-0.137-8.583-0.389c-2.181-1.808-4.327-3.744-6.399-5.816c-2.068-2.068-4.009-4.199-5.813-6.367  c-0.254-2.79-0.392-5.669-0.392-8.615s0.138-5.824,0.392-8.614c1.793-2.152,3.731-4.285,5.814-6.368  c2.072-2.072,4.219-4.009,6.4-5.816c2.78-0.252,5.647-0.389,8.582-0.389s5.802,0.137,8.582,0.389  c2.181,1.808,4.327,3.744,6.399,5.816c2.068,2.068,4.009,4.199,5.814,6.367C71.05,44.175,71.188,47.054,71.188,50z M66.396,33.604  c-1.399-1.399-2.826-2.729-4.269-4.008c2.438,0.32,4.794,0.731,7.047,1.23c0.499,2.251,0.909,4.605,1.229,7.041  C69.123,36.423,67.79,34.998,66.396,33.604z M59.42,27.279c-2.477-2.037-4.989-3.886-7.503-5.533  c4.149-2.463,8.257-4.341,12.113-5.519c1.873,3.534,3.452,7.757,4.646,12.489C65.732,28.088,62.637,27.601,59.42,27.279z   M55.816,26.996c-1.907-0.116-3.846-0.183-5.816-0.183s-3.909,0.067-5.817,0.183c1.928-1.472,3.873-2.83,5.817-4.064  C51.944,24.166,53.889,25.523,55.816,26.996z M40.58,27.279c-3.217,0.322-6.312,0.809-9.256,1.437  c1.193-4.731,2.773-8.955,4.646-12.489c3.856,1.178,7.963,3.056,12.113,5.519C45.569,23.393,43.057,25.242,40.58,27.279z   M37.872,29.596c-1.442,1.279-2.869,2.609-4.268,4.008c-1.402,1.402-2.734,2.83-4.008,4.27c0.32-2.438,0.731-4.794,1.23-7.048  C33.079,30.327,35.435,29.916,37.872,29.596z M27.278,40.588c-2.045,2.501-3.89,5.032-5.527,7.556  c-2.09-3.518-3.768-7.031-4.963-10.443c-0.205-0.584-0.391-1.16-0.565-1.729c3.535-1.875,7.76-3.455,12.493-4.648  C28.087,34.27,27.601,37.368,27.278,40.588z M26.998,44.146c-0.118,1.92-0.186,3.871-0.186,5.854c0,1.982,0.067,3.932,0.185,5.851  c-1.486-1.938-2.862-3.896-4.109-5.858C24.128,48.048,25.502,46.094,26.998,44.146z M27.279,59.426  c0.322,3.215,0.809,6.309,1.437,9.251c-4.75-1.199-8.989-2.786-12.532-4.67c1.171-3.828,3.039-7.938,5.542-12.135  C23.385,54.415,25.241,56.944,27.279,59.426z M29.597,62.134c1.281,1.443,2.613,2.868,4.007,4.263  c1.399,1.398,2.826,2.729,4.268,4.007c-2.437-0.319-4.793-0.73-7.045-1.229C30.328,66.923,29.917,64.568,29.597,62.134z   M40.579,72.722c2.477,2.036,4.989,3.886,7.504,5.533c-4.15,2.463-8.257,4.341-12.113,5.519c-1.874-3.534-3.453-7.758-4.646-12.489  C34.267,71.912,37.362,72.398,40.579,72.722z M44.183,73.005c1.908,0.116,3.847,0.183,5.817,0.183s3.909-0.066,5.817-0.183  c-1.928,1.472-3.873,2.829-5.817,4.064C48.056,75.834,46.11,74.477,44.183,73.005z M59.421,72.722  c3.217-0.323,6.312-0.81,9.256-1.438c-1.194,4.731-2.773,8.955-4.647,12.489c-3.855-1.178-7.963-3.056-12.112-5.519  C54.432,76.607,56.943,74.758,59.421,72.722z M62.128,70.404c1.441-1.279,2.869-2.609,4.268-4.008  c1.395-1.395,2.728-2.819,4.008-4.264c-0.32,2.436-0.73,4.79-1.229,7.041C66.921,69.673,64.565,70.084,62.128,70.404z   M72.721,59.426c2.035-2.479,3.889-5.004,5.546-7.542c2.082,3.508,3.754,7.013,4.946,10.416c0.205,0.585,0.392,1.159,0.564,1.728  c-3.535,1.875-7.76,3.455-12.493,4.649C71.912,65.734,72.398,62.641,72.721,59.426z M73.002,55.851  c0.118-1.919,0.186-3.868,0.186-5.851s-0.067-3.932-0.186-5.851c1.485,1.935,2.859,3.89,4.104,5.851  C75.861,51.961,74.487,53.916,73.002,55.851z M72.721,40.575c-0.322-3.215-0.809-6.309-1.437-9.251  c4.733,1.194,8.958,2.774,12.493,4.648c-0.173,0.568-0.359,1.144-0.564,1.729c-1.192,3.403-2.864,6.907-4.946,10.416  C76.609,45.578,74.756,43.053,72.721,40.575z M50,4.875c4.904,0,9.422,3.578,13.017,9.559c-4.177,1.307-8.58,3.379-13.017,6.102  c-4.437-2.723-8.84-4.795-13.016-6.102C40.579,8.453,45.096,4.875,50,4.875z M18.092,18.092c2.185-2.185,5.311-3.292,9.292-3.292  c2.094,0,4.358,0.324,6.73,0.92c-2.007,3.845-3.679,8.403-4.914,13.48c-5.081,1.235-9.643,2.909-13.49,4.918  C13.932,27.062,14.738,21.445,18.092,18.092z M4.875,50c0-4.908,3.582-9.427,9.57-13.023c0.145,0.458,0.291,0.918,0.455,1.385  c1.337,3.816,3.259,7.75,5.664,11.673c-2.719,4.47-4.759,8.883-6.055,13.027C8.483,59.46,4.875,54.925,4.875,50z M27.384,85.201  c-3.981,0-7.107-1.108-9.292-3.293c-3.482-3.482-4.138-9.24-2.423-16.049c3.856,2.02,8.432,3.7,13.532,4.94  c1.234,5.077,2.906,9.636,4.914,13.48C31.742,84.877,29.478,85.201,27.384,85.201z M50,95.125c-4.904,0-9.421-3.577-13.016-9.559  c4.176-1.307,8.58-3.379,13.016-6.102c4.437,2.723,8.84,4.795,13.016,6.103C59.421,91.548,54.904,95.125,50,95.125z M81.908,81.908  c-2.186,2.185-5.312,3.293-9.293,3.293c-2.094,0-4.357-0.324-6.729-0.921c2.008-3.845,3.68-8.403,4.914-13.48  c5.081-1.235,9.643-2.909,13.49-4.919C86.068,72.938,85.263,78.554,81.908,81.908z M85.556,63.022  c-0.145-0.458-0.291-0.917-0.455-1.385c-1.333-3.805-3.248-7.726-5.644-11.638c2.396-3.912,4.311-7.833,5.644-11.638  c0.164-0.467,0.311-0.926,0.455-1.385c5.987,3.596,9.569,8.115,9.569,13.023C95.125,54.907,91.543,59.427,85.556,63.022z"/><text x="0" y="115" fill="#000000" font-size="5px" font-weight="bold" font-family="'Helvetica Neue', Helvetica, Arial-Unicode, Arial, Sans-serif">Created by Srinivas Agra</text><text x="0" y="120" fill="#000000" font-size="5px" font-weight="bold" font-family="'Helvetica Neue', Helvetica, Arial-Unicode, Arial, Sans-serif">from the Noun Project</text></svg>